<svg xmlns="http://www.w3.org/2000/svg" width="1200" height="630" viewBox="0 0 1200 630" role="img" aria-labelledby="title desc">
  <title id="title">GEO Blog Rebuild Case Study</title>
  <desc id="desc">Running the five-layer model on real data</desc>
  <defs>
    <linearGradient id="fade" x1="0" y1="0" x2="1" y2="1">
      <stop offset="0" stop-color="#ffffff"/>
      <stop offset="1" stop-color="#b91c1c" stop-opacity="0.13"/>
    </linearGradient>
    <pattern id="grid" width="36" height="36" patternUnits="userSpaceOnUse">
      <path d="M36 0H0v36" fill="none" stroke="#d7dee8" stroke-width="1" opacity="0.46"/>
    </pattern>
  </defs>
  <rect width="1200" height="630" rx="0" fill="#f8fafc"/>
  <rect width="1200" height="630" fill="url(#grid)"/>
  <rect x="42" y="42" width="1116" height="546" rx="34" fill="url(#fade)" stroke="#d7dee8" stroke-width="2"/>
  <circle cx="1040" cy="110" r="180" fill="#b91c1c" opacity="0.08"/>
  <circle cx="1070" cy="540" r="120" fill="#b91c1c" opacity="0.08"/>
  
      <g>
        <rect x="672" y="128" width="414" height="330" rx="24" fill="#fff" stroke="#b91c1c" stroke-width="4"/>
        <path d="M712 378 C780 318 828 344 880 270 C936 190 994 206 1042 162" fill="none" stroke="#b91c1c" stroke-width="7" stroke-linecap="round"/>
        <rect x="720" y="176" width="120" height="30" rx="8" fill="#b91c1c" opacity="0.18"/>
        <rect x="720" y="226" width="180" height="30" rx="8" fill="#b91c1c" opacity="0.24"/>
        <rect x="720" y="276" width="90" height="30" rx="8" fill="#b91c1c" opacity="0.32"/>
        <circle cx="1042" cy="162" r="13" fill="#b91c1c"/>
      </g>
  <g>
    <text x="88" y="142" font-family="Arial, sans-serif" font-size="24" font-weight="700" letter-spacing="4" fill="#b91c1c">CHAPTER 05 · CASE STUDY</text>
    <text x="88" y="242" font-family="Georgia,'Times New Roman',serif" font-size="58" font-weight="700" fill="#102033">
      <tspan x="88" dy="0">GEO Blog Rebuild Case</tspan><tspan x="88" dy="66">Study</tspan>
    </text>
    <text x="90" y="442" font-family="Arial, sans-serif" font-size="26" font-weight="500" fill="#526173">
      <tspan x="90" dy="0">Running the five-layer model on real data</tspan>
    </text>
    <rect x="90" y="516" width="260" height="4" rx="2" fill="#b91c1c"/>
    <text x="90" y="552" font-family="Arial, sans-serif" font-size="18" font-weight="700" letter-spacing="3" fill="#526173">CUBXXW · AI SEARCH</text>
  </g>
</svg>
