<svg xmlns="http://www.w3.org/2000/svg" width="1200" height="630" viewBox="0 0 1200 630" role="img" aria-labelledby="t d">
  <title id="t">把笔记交给 AI 操作</title>
  <desc id="d">一套能照着装的 AI 原生知识系统</desc>
  <defs>
    <linearGradient id="fade" x1="0" y1="0" x2="1" y2="1"><stop offset="0" stop-color="#ffffff"/><stop offset="1" stop-color="#0d9488" stop-opacity="0.13"/></linearGradient>
    <pattern id="grid" width="36" height="36" patternUnits="userSpaceOnUse"><path d="M36 0H0v36" fill="none" stroke="#d5dbe4" stroke-width="1" opacity="0.5"/></pattern>
  </defs>
  <rect width="1200" height="630" fill="#f7f9fb"/>
  <rect width="1200" height="630" fill="url(#grid)"/>
  <rect x="42" y="42" width="1116" height="546" rx="34" fill="url(#fade)" stroke="#d5dbe4" stroke-width="2"/>
  <circle cx="1050" cy="120" r="180" fill="#0d9488" opacity="0.08"/>
  <circle cx="1080" cy="540" r="120" fill="#0d9488" opacity="0.08"/>
  <g transform="translate(830,190)"><rect x="0" y="0" width="80" height="80" rx="12" fill="none" stroke="#0d9488" stroke-width="4"/><rect x="130" y="0" width="80" height="80" rx="12" fill="none" stroke="#0d9488" stroke-width="4"/><rect x="0" y="130" width="80" height="80" rx="12" fill="none" stroke="#0d9488" stroke-width="4"/><rect x="130" y="130" width="80" height="80" rx="12" fill="#0d9488" opacity="0.9"/><line x1="80" y1="40" x2="130" y2="40" stroke="#0d9488" stroke-width="4"/><line x1="40" y1="80" x2="40" y2="130" stroke="#0d9488" stroke-width="4"/><line x1="170" y1="80" x2="170" y2="130" stroke="#0d9488" stroke-width="4"/><line x1="80" y1="170" x2="130" y2="170" stroke="#0d9488" stroke-width="4"/></g>
  <text x="88" y="150" font-family="Arial, sans-serif" font-size="23" font-weight="700" letter-spacing="4" fill="#0d9488">BUILD GUIDE · AI 第二大脑</text>
  <text x="88" y="252" font-family="'Noto Serif SC','PingFang SC','Microsoft YaHei',serif" font-size="58" font-weight="700" fill="#0f2e2b"><tspan x="88" dy="0">把笔记交给 AI 操作</tspan><tspan x="88" dy="74">Claude + Obsidian 搭建实录</tspan></text>
  <text x="90" y="470" font-family="'PingFang SC','Microsoft YaHei',Arial,sans-serif" font-size="26" font-weight="500" fill="#55606e">一套能照着装的 AI 原生知识系统</text>
  <rect x="90" y="536" width="230" height="4" rx="2" fill="#0d9488"/>
  <text x="90" y="572" font-family="Arial, sans-serif" font-size="17" font-weight="700" letter-spacing="3" fill="#8792a1">CUBXXW.COM</text>
</svg>