<svg xmlns="http://www.w3.org/2000/svg" width="1200" height="630" viewBox="0 0 1200 630" role="img" aria-labelledby="t d">
  <title id="t">给 AI 任务，别给方向</title>
  <desc id="d">方向没有完成态，任务有验收标准</desc>
  <defs>
    <linearGradient id="fade" x1="0" y1="0" x2="1" y2="1"><stop offset="0" stop-color="#ffffff"/><stop offset="1" stop-color="#059669" stop-opacity="0.13"/></linearGradient>
    <pattern id="grid" width="36" height="36" patternUnits="userSpaceOnUse"><path d="M36 0H0v36" fill="none" stroke="#d5dbe4" stroke-width="1" opacity="0.5"/></pattern>
  </defs>
  <rect width="1200" height="630" fill="#f7f9fb"/>
  <rect width="1200" height="630" fill="url(#grid)"/>
  <rect x="42" y="42" width="1116" height="546" rx="34" fill="url(#fade)" stroke="#d5dbe4" stroke-width="2"/>
  <circle cx="1050" cy="120" r="180" fill="#059669" opacity="0.08"/>
  <circle cx="1080" cy="540" r="120" fill="#059669" opacity="0.08"/>
  <g transform="translate(830,190)"><circle cx="60" cy="60" r="55" fill="none" stroke="#059669" stroke-width="4" stroke-dasharray="10 12" opacity="0.6"/><rect x="120" y="20" width="90" height="90" rx="12" fill="#059669" opacity="0.9"/><path d="M140 65 l18 18 l34 -38" fill="none" stroke="#ffffff" stroke-width="8" stroke-linecap="round" stroke-linejoin="round"/><line x1="30" y1="160" x2="210" y2="160" stroke="#059669" stroke-width="4"/><path d="M195 150 l16 10 l-16 10 z" fill="#059669"/></g>
  <text x="88" y="150" font-family="Arial, sans-serif" font-size="23" font-weight="700" letter-spacing="4" fill="#059669">OPERATING PRINCIPLE</text>
  <text x="88" y="252" font-family="'Noto Serif SC','PingFang SC','Microsoft YaHei',serif" font-size="58" font-weight="700" fill="#0c2c22"><tspan x="88" dy="0">给 AI 任务，别给方向</tspan></text>
  <text x="90" y="430" font-family="'PingFang SC','Microsoft YaHei',Arial,sans-serif" font-size="26" font-weight="500" fill="#55606e">方向没有完成态，任务有验收标准</text>
  <rect x="90" y="536" width="230" height="4" rx="2" fill="#059669"/>
  <text x="90" y="572" font-family="Arial, sans-serif" font-size="17" font-weight="700" letter-spacing="3" fill="#8792a1">CUBXXW.COM</text>
</svg>