<svg xmlns="http://www.w3.org/2000/svg" viewBox="0 0 1200 675"><defs><linearGradient id="bgGradient" x1="0%" x2="100%" y1="0%" y2="100%"><stop offset="0%" style="stop-color:#1a1a2e;stop-opacity:1"/><stop offset="100%" style="stop-color:#16213e;stop-opacity:1"/></linearGradient><linearGradient id="leftSide" x1="0%" x2="100%" y1="0%" y2="0%"><stop offset="0%" style="stop-color:#4a90d9;stop-opacity:.3"/><stop offset="100%" style="stop-color:#4a90d9;stop-opacity:.1"/></linearGradient><linearGradient id="rightSide" x1="0%" x2="100%" y1="0%" y2="0%"><stop offset="0%" style="stop-color:#e94560;stop-opacity:.1"/><stop offset="100%" style="stop-color:#e94560;stop-opacity:.3"/></linearGradient></defs><rect width="1200" height="675" fill="url(#bgGradient)"/><rect width="600" height="675" x="0" y="0" fill="url(#leftSide)"/><rect width="600" height="675" x="600" y="0" fill="url(#rightSide)"/><line x1="600" x2="600" y1="0" y2="675" stroke="#fff" stroke-width="2" opacity=".3"/><g fill="#4a90d9" opacity=".8"><line x1="200" x2="300" y1="200" y2="200" stroke="#4a90d9" stroke-width="3"/><line x1="250" x2="250" y1="200" y2="250" stroke="#4a90d9" stroke-width="3"/><circle cx="200" cy="200" r="8" fill="#4a90d9"/><circle cx="300" cy="200" r="8" fill="#4a90d9"/><circle cx="250" cy="250" r="8" fill="#4a90d9"/><rect width="160" height="160" x="220" y="350" fill="none" stroke="#4a90d9" stroke-width="4" rx="10"/><rect width="100" height="100" x="250" y="380" fill="#4a90d9" opacity=".5"/><text x="200" y="580" fill="#4a90d9" font-family="monospace" font-size="14" opacity=".6">101010</text><text x="280" y="600" fill="#4a90d9" font-family="monospace" font-size="14" opacity=".6">010101</text></g><g fill="#e94560" opacity=".8"><path fill="#e94560" d="M 850 250 C 850 250 870 230 900 230 C 930 230 950 250 950 250 C 950 250 950 280 900 320 C 850 280 850 250 850 250" opacity=".7"/><ellipse cx="820" cy="450" fill="none" stroke="#e94560" stroke-width="4" opacity=".6" rx="40" ry="60"/><ellipse cx="980" cy="450" fill="none" stroke="#e94560" stroke-width="4" opacity=".6" rx="40" ry="60"/><ellipse cx="900" cy="550" fill="none" stroke="#e94560" stroke-width="3" rx="60" ry="30" transform="rotate(45 900 550)"/><line x1="870" x2="930" y1="520" y2="580" stroke="#e94560" stroke-width="2"/></g><g transform="translate(600, 350)"><line x1="-150" x2="150" y1="0" y2="0" stroke="#fff" stroke-width="6" opacity=".5"/><line x1="0" x2="0" y1="0" y2="150" stroke="#fff" stroke-width="8" opacity=".5"/><circle cx="-150" cy="0" r="15" fill="#4a90d9" opacity=".8"/><circle cx="150" cy="0" r="15" fill="#e94560" opacity=".8"/></g><text x="600" y="640" fill="#8090a0" font-family="Georgia, serif" font-size="20" font-style="italic" text-anchor="middle">我们失去的是手段，不是目的</text></svg>